<?xml version="1.0" encoding="UTF-8"?>
<svg id="Livello_1" data-name="Livello 1" xmlns="http://www.w3.org/2000/svg" viewBox="0 0 587.29 567.45">
  <defs>
    <style>
      .cls-1 {
        fill: #ffffff;
        stroke-width: 0px;
      }
    </style>
  </defs>
  <path class="cls-1" d="M266.71,145.35c0,2.16.72,3.36,3.36,3.6,6.47.48,10.31.72,19.18.72,19.18,0,35.48-11.03,35.48-36.44,0-17.98-9.59-38.84-32.36-38.84h-25.65v70.96Z"/>
  <path class="cls-1" d="M259.04,369.98h-.72v75.28c0,25.41,0,39.56.72,53.7,0,.58.12,1.03.36,1.4h106.66l-107.02-130.38Z"/>
  <path class="cls-1" d="M444.8,151.1c23.49,0,45.55-16.3,45.55-47.71v-46.75c0-25.41-.24-39.56-.72-53.7,0-1.68-.96-2.4-3.12-2.64-1.45-.12-2.98-.22-4.53-.31h-76.14c-1.64.09-3.22.19-4.67.31-2.16.24-2.88.96-2.88,2.64v103.81c0,30.45,22.29,44.35,46.51,44.35Z"/>
  <path class="cls-1" d="M323.05,34.35C323.05,14.45,311.06.07,291.4.07c-9.83,0-13.9,0-21.34.72-2.4.24-3.36,1.44-3.36,4.08v66.17h24.69c18.46,0,31.65-9.83,31.65-36.68Z"/>
  <path class="cls-1" d="M397.85,351.76c-5.75,0-12.95.24-18.94.72-2.16.24-3.12.96-3.12,2.64-.72,14.14-.72,28.29-.72,53.7v91.54h61.8c.2-.37.29-.82.29-1.4v-143.84c0-1.68-.72-2.4-2.88-2.64-5.99-.48-14.14-.72-19.9-.72l-.48-.48v-2.16c10.07.24,22.54.24,32.84.24s22.78,0,32.84-.24v2.16l-.48.48c-5.75,0-13.9.24-19.9.72-2.16.24-2.88.96-2.88,2.64v143.84c0,.58.09,1.03.29,1.4h43.73v-168.94c-8.92-.16-18-.17-27.09-.17-10.31,0-21.82,0-31.88.24v-2.16l.48-.48c5.75,0,11.03-.24,16.3-.72,2.16-.24,2.64-.96,2.16-2.4l-21.34-52.26c-12.47-.24-19.42-.24-30.21-.24s-18.94,0-32.13.24l-8.39,20.14c-4.8,11.27-10.07,24.45-12.47,32.36-.48,1.68.48,1.92,2.64,2.16,5.99.48,10.55.72,16.3.72l.48.48v2.16c-10.07-.24-12.71-.24-23.02-.24s-13.19,0-23.25.24v-2.16l.48-.48c5.75,0,10.31-.24,16.3-.72,2.16-.24,3.12-.72,4.32-3.12,6.47-13.9,13.19-29.73,23.01-52.5l42.67-102.37h.72l65.21,154.87c.96,2.16,2.88,2.88,5.03,3.12,4.51.59,9.02.69,13.67.71V.14c-.79.05-1.58.11-2.34.17-2.16.24-3.12.96-3.12,2.64-.72,14.14-.72,28.29-.72,53.7v45.31c0,39.56-28.05,54.18-59.21,54.18s-55.86-17.5-55.86-49.39V2.94c0-1.68-.72-2.4-2.88-2.64-1.45-.12-3.03-.22-4.67-.3h-52.58c15.77,5.35,25.16,17.28,25.16,32.43,0,24.45-21.34,37.88-44.11,39.8,29.01,2.4,45.79,14.62,45.79,37.16,0,25.89-24.21,44.11-58.74,43.39-12.23-.24-19.66-.24-29.97-.24-9.59,0-22.78,0-32.84.24v-2.16l.48-.48c5.75,0,13.9-.24,19.9-.72,2.16-.24,2.88-.96,2.88-2.64V2.94c0-1.68-.72-2.4-2.88-2.64-1.45-.12-3.03-.22-4.67-.3H0v500.36h253.41c.24-.37.36-.82.36-1.4.48-14.15.72-28.29.72-53.7v-77.2c0-2.16-1.68-7.19-5.03-10.55-2.64-2.64-5.75-4.56-10.55-5.04-5.75-.48-8.39-.72-14.14-.72l-.48-.48v-2.16c10.07.24,24.45.24,34.76.24h9.83l101.65,124.66h.72v-65.21c0-25.41-.24-39.56-.72-53.7,0-1.68-.96-2.4-3.12-2.64-5.99-.48-13.19-.72-18.94-.72l-.48-.48v-2.16c10.07.24,18.46.24,25.17.24s15.1,0,25.17-.24v2.16l-.48.48ZM272.46,334.36c-18.7,0-35.24-3.84-47.95-10.55l-.24-.72c.72-7.91.96-29.01.96-40.76h1.92l.48.48c.72,9.83,1.92,17.98,4.08,23.74,5.27,13.9,20.62,24.45,40.75,24.45,26.85,0,39.32-14.62,39.32-32.6,0-21.34-12.71-28.29-44.59-40.27-22.77-8.63-37.4-20.62-37.4-44.59s22.06-41.95,48.19-41.95c17.5,0,30.45,3.84,43.15,10.55l.24.72c-.72,7.91-.96,29.01-.96,40.76h-1.92l-.48-.48c-.72-9.83-1.92-17.98-4.08-23.73-5.27-13.9-16.78-24.45-35.72-24.45s-33.56,7.67-33.56,25.89c0,21.82,10.07,29.97,35.72,38.6,33.32,11.27,46.75,24.45,46.75,46.51,0,30.92-25.65,48.43-54.66,48.43Z"/>
  <path class="cls-1" d="M407.34,198.91l-29.49,70.96c12.23.24,23.73.24,30.93.24,10.31,0,19.9,0,28.77-.24l-29.49-70.96h-.72Z"/>
  <path class="cls-1" d="M572.74,500.36c2.66,0,5.09-.71,7.28-2.13,2.19-1.42,3.95-3.4,5.28-5.96,1.33-2.55,2-5.49,2-8.81s-.66-6.3-1.99-9.21c-.91-2-2.1-3.82-3.54-5.5l5.17-4.86v-10.47l-10.9,10.39c-1.59-1.01-3.32-1.89-5.21-2.62-3.42-1.32-7.25-1.99-11.48-1.99v6.57c3.13,0,6.02.43,8.67,1.3,1.14.37,2.2.83,3.2,1.33l-12,11.44c-.8-1.16-1.6-2.27-2.41-3.31-1.5-1.92-3.12-3.47-4.85-4.62-1.74-1.16-3.72-1.73-5.96-1.73s-4.22.61-5.81,1.84c-1.59,1.23-2.8,2.82-3.64,4.77s-1.25,4.08-1.25,6.39c0,2.6.5,4.94,1.5,7.01,1,2.07,2.38,3.7,4.14,4.87,1.76,1.18,3.81,1.77,6.14,1.77,1.38,0,2.71-.25,3.99-.76,1.29-.51,2.7-1.37,4.25-2.6.9-.72,1.92-1.6,3.02-2.62.7.98,1.43,1.95,2.19,2.91,1.55,1.95,3.32,3.54,5.31,4.77,2,1.23,4.3,1.84,6.92,1.84ZM549.05,488.95c-.73.39-1.48.58-2.24.58-1.04,0-1.97-.26-2.8-.8-.83-.53-1.5-1.26-2.02-2.2-.52-.94-.78-2.03-.78-3.29,0-1.68.47-3.07,1.42-4.15.95-1.08,2.13-1.63,3.55-1.63,1.28,0,2.45.42,3.52,1.26,1.07.84,2.11,2.05,3.12,3.61.45.69.92,1.43,1.42,2.21-.93.88-1.73,1.63-2.38,2.23-1.14,1.06-2.07,1.78-2.8,2.17ZM563.34,486.08l13.86-13.04c.85.98,1.58,2.02,2.18,3.13,1.08,2.02,1.63,4.17,1.63,6.43,0,1.83-.34,3.51-1.03,5.06-.69,1.54-1.66,2.77-2.91,3.68-1.26.92-2.69,1.37-4.3,1.37s-3-.42-4.3-1.26c-1.3-.84-2.55-2.01-3.73-3.5-.47-.59-.93-1.21-1.39-1.86Z"/>
  <path class="cls-1" d="M566.67,385.02c-1.61-2.31-3.7-4.1-6.25-5.38-2.55-1.27-5.25-1.91-8.09-1.91-2.02,0-4.03.39-6.03,1.16-2,.77-3.79,1.88-5.38,3.32-1.59,1.45-2.86,3.13-3.83,5.06-.96,1.93-1.45,4.04-1.45,6.36v21.52h51.28v-8.16h-17.84v-13.79c0-3.13-.81-5.85-2.42-8.16ZM561.94,406.98h-19.14v-12.93c0-1.4.4-2.71,1.19-3.94.79-1.23,1.9-2.23,3.32-3,1.42-.77,3.07-1.15,4.95-1.15s3.48.34,4.95,1.01c1.47.68,2.63,1.59,3.47,2.74.84,1.16,1.26,2.48,1.26,3.97v13.29Z"/>
  <path class="cls-1" d="M586.93,332.73v-8.52l-51.28,19.93v7.66l51.28,20.01v-8.52l-13.94-5.03v-20.51l13.94-5.01ZM566.99,356.09l-22.46-8.11,22.46-8.07v16.19Z"/>
  <path class="cls-1" d="M535.65,310.63h51.28v-8.16h-17.84v-11.84l17.84-11.12v-9.1l-19.5,12.06c-.67-2.02-1.76-3.79-3.25-5.31-1.49-1.52-3.26-2.69-5.31-3.5-2.05-.82-4.22-1.23-6.54-1.23-2.02,0-4.03.4-6.03,1.19-2,.79-3.79,1.9-5.38,3.32-1.59,1.42-2.86,3.09-3.83,5.02-.96,1.93-1.45,4.05-1.45,6.36v22.32ZM542.8,288.82c0-1.45.42-2.77,1.26-3.97.84-1.2,1.99-2.2,3.43-3,1.44-.8,3.06-1.19,4.84-1.19s3.32.34,4.77,1.01c1.44.67,2.61,1.59,3.5,2.74.89,1.16,1.34,2.48,1.34,3.97v14.08h-19.14v-13.65Z"/>
  <polygon class="cls-1" points="586.93 235.59 542.8 235.59 542.8 218.55 535.65 218.55 535.65 260.87 542.8 260.87 542.8 243.75 586.93 243.75 586.93 235.59"/>
  <polygon class="cls-1" points="586.93 160.7 535.72 160.7 535.72 168.79 572.7 168.79 535.65 197.82 535.65 204.47 586.93 204.47 586.93 196.3 550.67 196.3 586.93 167.7 586.93 160.7"/>
  <polygon class="cls-1" points="535.65 107.32 535.65 141.85 586.93 141.85 586.93 106.67 579.78 106.67 579.78 133.69 564.1 133.69 564.1 110.79 557.46 110.79 557.46 133.69 542.8 133.69 542.8 107.32 535.65 107.32"/>
  <path class="cls-1" d="M564.18,57.6c-1.49-1.52-3.26-2.69-5.31-3.5-2.05-.82-4.22-1.23-6.54-1.23-2.02,0-4.03.4-6.03,1.19-2,.79-3.79,1.9-5.38,3.32s-2.86,3.09-3.83,5.02c-.96,1.93-1.45,4.05-1.45,6.36v22.32h51.28v-8.16h-17.84v-11.84l17.84-11.12v-9.1l-19.5,12.06c-.67-2.02-1.76-3.79-3.25-5.31ZM561.94,82.91h-19.14v-13.65c0-1.45.42-2.77,1.26-3.97.84-1.2,1.99-2.2,3.43-3,1.44-.79,3.06-1.19,4.84-1.19s3.32.34,4.77,1.01c1.44.67,2.61,1.59,3.5,2.74.89,1.16,1.34,2.48,1.34,3.97v14.08Z"/>
  <path class="cls-1" d="M542.3,35.57c2.33,1.61,5.17,2.42,8.52,2.42,2.69,0,4.87-.55,6.55-1.66,1.68-1.11,3.07-2.79,4.17-5.06,1.1-2.26,2.08-5.08,2.95-8.45.72-2.94,1.44-5.45,2.16-7.55.72-2.09,1.59-3.71,2.63-4.84,1.03-1.13,2.39-1.7,4.06-1.7,2.15,0,3.78.85,4.91,2.56,1.12,1.71,1.68,4.18,1.68,7.4,0,1.93-.23,3.82-.69,5.67-.46,1.85-1.02,3.56-1.7,5.13s-1.38,2.95-2.13,4.15c-.75,1.21-1.43,2.09-2.06,2.67l6.93,3.76c1.49-1.97,2.76-4.1,3.79-6.39,1.04-2.29,1.83-4.69,2.38-7.22.55-2.53.83-5.07.83-7.62s-.29-5.03-.86-7.29c-.58-2.26-1.45-4.26-2.62-5.99s-2.69-3.09-4.56-4.08c-1.87-.99-4.07-1.48-6.61-1.48-3.11,0-5.61.69-7.47,2.06-1.87,1.37-3.38,3.32-4.53,5.85-1.15,2.53-2.13,5.55-2.95,9.06-.67,2.79-1.31,5.14-1.91,7.04-.6,1.9-1.38,3.31-2.33,4.22-.96.92-2.25,1.37-3.88,1.37-2.2,0-3.93-.82-5.18-2.46-1.25-1.64-1.87-4.14-1.87-7.51,0-1.54.18-3.04.54-4.51.36-1.47.79-2.82,1.3-4.04.5-1.23,1.06-2.31,1.66-3.25.6-.94,1.17-1.62,1.7-2.06l-6.64-3.61c-1.11,1.4-2.09,3-2.96,4.8-.87,1.81-1.55,3.76-2.06,5.85s-.76,4.3-.76,6.61c0,3.47.59,6.62,1.76,9.46,1.18,2.84,2.93,5.07,5.25,6.68Z"/>
  <polygon class="cls-1" points="0 537.7 11.53 537.7 11.53 567.22 14.72 567.22 14.72 537.7 26.24 537.7 26.24 534.88 0 534.88 0 537.7"/>
  <polygon class="cls-1" points="58 549.27 38.82 549.27 38.82 534.88 35.63 534.88 35.63 567.22 38.82 567.22 38.82 552.1 58 552.1 58 567.22 61.14 567.22 61.14 534.88 58 534.88 58 549.27"/>
  <polygon class="cls-1" points="77 552.05 92.81 552.05 92.81 549.36 77 549.36 77 537.7 95.13 537.7 95.13 534.88 73.81 534.88 73.81 567.22 95.54 567.22 95.54 564.4 77 564.4 77 552.05"/>
  <rect class="cls-1" x="122.29" y="534.88" width="3.19" height="32.35"/>
  <polygon class="cls-1" points="134.86 537.7 146.39 537.7 146.39 567.22 149.58 567.22 149.58 537.7 161.1 537.7 161.1 534.88 134.86 534.88 134.86 537.7"/>
  <path class="cls-1" d="M177.42,534.88l-13.53,32.35h3.42l4.04-10.11h14.79l4.04,10.11h3.37l-13.44-32.35h-2.69ZM172.35,554.61l6.39-15.99,6.39,15.99h-12.78Z"/>
  <polygon class="cls-1" points="205.94 534.88 202.75 534.88 202.75 567.22 224.62 567.22 224.62 564.4 205.94 564.4 205.94 534.88"/>
  <rect class="cls-1" x="233.87" y="534.88" width="3.19" height="32.35"/>
  <path class="cls-1" d="M259.74,534.88l-13.53,32.35h3.42l4.04-10.11h14.79l4.04,10.11h3.37l-13.44-32.35h-2.69ZM254.67,554.61l6.39-15.99,6.39,15.99h-12.78Z"/>
  <polygon class="cls-1" points="308.95 561.85 287.72 534.88 285.08 534.88 285.08 567.22 288.27 567.22 288.27 540.75 309.18 567.22 312.14 567.22 312.14 534.92 308.95 534.92 308.95 561.85"/>
  <polygon class="cls-1" points="364.86 561.85 343.62 534.88 340.98 534.88 340.98 567.22 344.17 567.22 344.17 540.75 365.08 567.22 368.04 567.22 368.04 534.92 364.86 534.92 364.86 561.85"/>
  <path class="cls-1" d="M404.74,539.84c-1.32-1.58-2.91-2.84-4.76-3.78-1.85-.94-3.92-1.41-6.2-1.41-2.16,0-4.16.45-6.01,1.34-1.85.9-3.47,2.11-4.85,3.65-1.38,1.53-2.45,3.28-3.21,5.24-.76,1.96-1.14,4.02-1.14,6.17s.36,4.08,1.09,6.04,1.76,3.72,3.1,5.29c1.34,1.56,2.93,2.8,4.78,3.71,1.85.91,3.92,1.37,6.2,1.37,2.16,0,4.16-.44,6.01-1.32,1.85-.88,3.46-2.09,4.83-3.62s2.43-3.28,3.19-5.24c.76-1.96,1.14-4.02,1.14-6.17,0-2.03-.36-4.02-1.09-5.97-.73-1.94-1.76-3.7-3.08-5.28ZM404.9,555.97c-.55,1.61-1.34,3.06-2.39,4.35-1.05,1.29-2.31,2.32-3.78,3.1-1.47.78-3.14,1.16-4.99,1.16s-3.38-.37-4.85-1.12c-1.47-.74-2.74-1.75-3.8-3.01-1.06-1.26-1.88-2.7-2.46-4.33s-.87-3.32-.87-5.08c0-1.67.28-3.31.84-4.92.56-1.61,1.37-3.06,2.42-4.35,1.05-1.29,2.31-2.32,3.78-3.07,1.47-.76,3.12-1.14,4.94-1.14s3.37.36,4.83,1.09c1.46.73,2.73,1.73,3.8,3.01,1.08,1.27,1.91,2.72,2.48,4.33.58,1.61.87,3.29.87,5.06s-.27,3.31-.82,4.92Z"/>
  <polygon class="cls-1" points="415.06 537.7 426.59 537.7 426.59 567.22 429.78 567.22 429.78 537.7 441.31 537.7 441.31 534.88 415.06 534.88 415.06 537.7"/>
  <path class="cls-1" d="M457.62,534.88l-13.53,32.35h3.42l4.04-10.11h14.79l4.04,10.11h3.37l-13.44-32.35h-2.69ZM452.55,554.61l6.39-15.99,6.39,15.99h-12.78Z"/>
  <path class="cls-1" d="M502.79,552.87c1.08-.94,1.91-2.1,2.51-3.46.59-1.37.89-2.82.89-4.37,0-1.24-.24-2.47-.71-3.67-.47-1.2-1.14-2.29-2-3.28-.87-.99-1.88-1.77-3.03-2.35-1.15-.58-2.43-.87-3.83-.87h-13.67v32.35h3.19v-11.94h9.57l7.61,11.94h3.6l-7.93-12.48c1.46-.3,2.73-.93,3.8-1.87ZM486.14,552.46v-14.76h10.3c1.21,0,2.32.34,3.3,1.03.99.68,1.78,1.58,2.37,2.69.59,1.11.89,2.32.89,3.62s-.26,2.48-.77,3.62c-.52,1.14-1.25,2.06-2.19,2.76-.94.7-2.05,1.05-3.33,1.05h-10.57Z"/>
  <rect class="cls-1" x="517.26" y="534.88" width="3.19" height="32.35"/>
  <polygon class="cls-1" points="536.3 552.05 552.11 552.05 552.11 549.36 536.3 549.36 536.3 537.7 554.44 537.7 554.44 534.88 533.11 534.88 533.11 567.22 554.85 567.22 554.85 564.4 536.3 564.4 536.3 552.05"/>
  <path class="cls-1" d="M582.05,551.39c-1.67-.67-3.66-1.24-5.97-1.73-2.07-.49-3.77-.96-5.1-1.41-1.34-.46-2.32-1.05-2.94-1.78-.62-.73-.93-1.73-.93-3,0-1.85.66-3.31,1.98-4.39,1.32-1.08,3.39-1.62,6.22-1.62.97,0,1.89.09,2.76.27.87.18,1.68.43,2.44.73s1.44.66,2.05,1.07c.61.41,1.14.87,1.59,1.39l1.55-2.55c-.91-.82-1.89-1.5-2.94-2.05-1.05-.55-2.19-.96-3.42-1.25-1.23-.29-2.56-.43-3.99-.43-2.25,0-4.24.36-5.97,1.07-1.73.71-3.09,1.76-4.08,3.14-.99,1.38-1.48,3.07-1.48,5.07,0,1.73.39,3.12,1.16,4.16s1.94,1.89,3.48,2.52c1.55.64,3.45,1.21,5.7,1.73,2.13.49,3.92.99,5.38,1.5,1.46.52,2.55,1.18,3.28,1.98.73.8,1.09,1.87,1.09,3.21,0,1.85-.72,3.24-2.16,4.18-1.44.94-3.46,1.41-6.04,1.41-1.21,0-2.39-.11-3.53-.34-1.14-.23-2.2-.55-3.19-.98-.99-.42-1.88-.9-2.69-1.43-.81-.53-1.5-1.1-2.07-1.71l-1.59,2.6c1.18,1.06,2.46,1.94,3.83,2.62,1.37.68,2.82,1.2,4.35,1.55,1.53.35,3.14.52,4.81.52s3.26-.17,4.69-.52c1.43-.35,2.66-.89,3.69-1.61,1.03-.73,1.84-1.64,2.41-2.73.58-1.09.87-2.38.87-3.87,0-1.94-.46-3.48-1.37-4.62-.91-1.14-2.2-2.04-3.87-2.71Z"/>
</svg>